<svg xmlns="http://www.w3.org/2000/svg" xmlns:xlink="http://www.w3.org/1999/xlink" width="393.503" height="600" viewBox="0 0 393.503 600">
  <defs>
    <clipPath id="clip-path">
      <rect id="Rectángulo_7" data-name="Rectángulo 7" width="393.504" height="600" fill="#fabe42"/>
    </clipPath>
  </defs>
  <g id="Grupo_6" data-name="Grupo 6" transform="translate(0 0)">
    <g id="Grupo_5" data-name="Grupo 5" transform="translate(0 0)" clip-path="url(#clip-path)">
      <path id="Trazado_32" data-name="Trazado 32" d="M108.607,165.534a213.213,213.213,0,0,1,38.892-3.987c.8-.022,1.58-.022,2.353-.022a206.4,206.4,0,0,1,31.288,2.364L151.91,92.653,74.356,15.1a41.161,41.161,0,0,0-58.087,0,41.042,41.042,0,0,0,0,58.1Z" transform="translate(41.753 30.712)" fill="#fabe42"/>
      <path id="Trazado_33" data-name="Trazado 33" d="M76.878,197.182a206.815,206.815,0,0,1,47.77,16.918q5.8,2.909,11.406,6.155V124.977L95.256,25.5A41.077,41.077,0,1,0,19.248,56.682Z" transform="translate(159.763 0.001)" fill="#fabe42"/>
      <path id="Trazado_34" data-name="Trazado 34" d="M77.058,219.02a205.662,205.662,0,0,1,15.633,22.67c2.375,3.944,4.6,7.985,6.689,12.092a206.243,206.243,0,0,1,11.014,25.677V46.5a41.081,41.081,0,1,0-82.163,0V173.908a211.918,211.918,0,0,1,33.9,28.139A204.528,204.528,0,0,1,77.058,219.02" transform="translate(279.319 53.637)" fill="#fabe42"/>
      <path id="Trazado_35" data-name="Trazado 35" d="M378.6,141.488A186.062,186.062,0,0,0,337,80.656,181.755,181.755,0,0,0,316.773,63.7c-3.007-2.462-6.068-4.859-9.227-7.136q-2.876-2.124-5.861-4.085c-1.928-1.318-3.9-2.582-5.872-3.835a197.062,197.062,0,0,0-53.675-23.3c-2.331-.632-4.7-1.22-7.07-1.765-2.3-.512-4.6-.98-6.929-1.405A193.61,193.61,0,0,0,191.6,18.723c-.752,0-1.46,0-2.211.033a205.915,205.915,0,0,0-28.913,2.364c-2.375.381-4.717.773-7.07,1.242-2.3.425-4.6.915-6.874,1.438A196.867,196.867,0,0,0,21.566,113.686a194.364,194.364,0,0,0-14.674,27.8q-2.206,5.164-4.085,10.436c-11.254,31.636,12.779,64.809,46.354,64.809,20.808,0,39.85-12.79,46.637-32.453q1.307-3.791,2.941-7.452a99.779,99.779,0,0,1,54.579-52.651,104.864,104.864,0,0,1,111.076,20.917,99.018,99.018,0,0,1,22.355,31.734,101.435,101.435,0,0,1,0,79.821,98.781,98.781,0,0,1-22.355,31.734A102.644,102.644,0,0,1,231.7,309.3a106.789,106.789,0,0,1-78.383,0A99.778,99.778,0,0,1,98.74,256.649c-.937-2.092-1.8-4.151-2.571-6.2a49.219,49.219,0,0,0-87.163-8.922c-.076.109-.163.2-.24.3A40.436,40.436,0,0,0,1.064,270a48.735,48.735,0,0,0,3.323,15.851q1.193,3.056,2.506,6.133a193.938,193.938,0,0,0,14.456,27.464c34.97,58.359,98.885,95.3,170.339,95.3a196.007,196.007,0,0,0,128.768-47.738A182.1,182.1,0,0,0,337,352.821,186.062,186.062,0,0,0,378.6,291.989q14.9-34.855,14.9-75.256,0-40.379-14.9-75.245" transform="translate(0.004 185.247)" fill="#fabe42"/>
    </g>
  </g>
</svg>
