<svg xmlns="http://www.w3.org/2000/svg" xmlns:xlink="http://www.w3.org/1999/xlink" width="1109.905" height="200" viewBox="0 0 1109.905 200">
  <defs>
    <clipPath id="clip-path">
      <rect id="Rectángulo_6" data-name="Rectángulo 6" width="1109.905" height="200"/>
    </clipPath>
  </defs>
  <g id="Grupo_4" data-name="Grupo 4" transform="translate(0 0)">
    <g id="Grupo_3" data-name="Grupo 3" transform="translate(0 0)" clip-path="url(#clip-path)">
      <path id="Trazado_22" data-name="Trazado 22" d="M36.613,54.555a68.452,68.452,0,0,1,12.541-1.287c.261-.01.508-.01.759-.01a66.366,66.366,0,0,1,10.093.769L50.581,31.051,25.569,6.039A13.249,13.249,0,1,0,6.83,24.773Z" transform="translate(11.878 8.736)"/>
      <path id="Trazado_23" data-name="Trazado 23" d="M30.871,63.594a66.437,66.437,0,0,1,15.406,5.459q1.87.927,3.679,1.98V40.311L36.8,8.227A13.245,13.245,0,1,0,12.288,18.28Z" transform="translate(45.447 0.003)"/>
      <path id="Trazado_24" data-name="Trazado 24" d="M35.476,72.677a66.691,66.691,0,0,1,5.042,7.314q1.146,1.908,2.156,3.9a66.472,66.472,0,0,1,3.554,8.284V17.039a13.247,13.247,0,1,0-26.495,0V58.126A68.284,68.284,0,0,1,30.661,67.2a64.651,64.651,0,0,1,4.815,5.474" transform="translate(79.455 15.258)"/>
      <path id="Trazado_25" data-name="Trazado 25" d="M372.889,125.636,342.142,85.544q12.916-3.031,19.538-11.566t6.62-22.252a41.145,41.145,0,0,0-2.473-14.356,33.037,33.037,0,0,0-19.7-19.855,47.809,47.809,0,0,0-17.548-2.951H285.347a5.412,5.412,0,0,0-5.414,5.414v81L248.418,18.184a5.624,5.624,0,0,0-5.253-3.619H216.781a5.624,5.624,0,0,0-5.253,3.619L172.165,121.6,154.8,19.35a5.746,5.746,0,0,0-5.665-4.785h-22.1a5.744,5.744,0,0,0-5.383,3.74L99.12,78.683,76.42,18.249A5.679,5.679,0,0,0,71.1,14.565H48.9a5.682,5.682,0,0,0-5.6,4.735L24.768,128.411a5.5,5.5,0,0,0,5.419,6.419h19.86a5.494,5.494,0,0,0,5.434-4.685L65.146,65.6,90.681,131.18a5.735,5.735,0,0,0,5.343,3.649h4.68a5.723,5.723,0,0,0,5.3-3.554L132.938,65.6l9.636,64.349a5.726,5.726,0,0,0,5.66,4.876H196.4a5.7,5.7,0,0,0,5.383-3.84l5.856-17.055H252.3l5.871,17.1a5.634,5.634,0,0,0,5.323,3.8h42.072a5.625,5.625,0,0,0,5.625-5.625V88.575l28.143,43.635a5.707,5.707,0,0,0,4.8,2.619h24.218a5.714,5.714,0,0,0,4.534-9.193M215.936,90.169l14.039-40.036,14.034,40.036Zm115.359-25.68q-4.946,3.83-14.195,3.83h-5.906V38.647H317.1q9.244,0,14.195,3.83t4.941,11q0,7.178-4.941,11.008" transform="translate(99.407 58.648)"/>
      <path id="Trazado_26" data-name="Trazado 26" d="M122.1,52.676a60,60,0,0,0-13.416-19.618,58.721,58.721,0,0,0-6.524-5.469q-1.448-1.191-2.971-2.3c-.623-.452-1.252-.89-1.895-1.317-.618-.422-1.257-.829-1.89-1.231a63.62,63.62,0,0,0-17.316-7.52c-.749-.2-1.513-.392-2.277-.568Q74.7,14.4,73.578,14.2a62.516,62.516,0,0,0-11.787-1.111c-.241,0-.467,0-.714.005a67.169,67.169,0,0,0-9.324.764c-.764.121-1.523.251-2.277.4-.744.136-1.483.3-2.222.462a63.489,63.489,0,0,0-40.3,28.988,62.078,62.078,0,0,0-4.73,8.967C1.749,53.787,1.312,54.908.9,56.044a15.756,15.756,0,0,0,14.949,20.9,15.828,15.828,0,0,0,15.039-10.47q.422-1.221.95-2.4a32.182,32.182,0,0,1,17.6-16.98A33.825,33.825,0,0,1,85.27,53.837a32.051,32.051,0,0,1,7.208,10.234,32.717,32.717,0,0,1,0,25.746,31.94,31.94,0,0,1-7.208,10.234A33.134,33.134,0,0,1,74.724,106.8a34.445,34.445,0,0,1-25.278,0,32.2,32.2,0,0,1-10.47-6.746,32.529,32.529,0,0,1-7.133-10.234c-.3-.679-.578-1.342-.829-2A15.872,15.872,0,0,0,2.906,84.941l-.075.1A13.046,13.046,0,0,0,.342,94.124a15.717,15.717,0,0,0,1.071,5.112c.261.658.528,1.317.814,1.975a62.262,62.262,0,0,0,4.66,8.857,64.155,64.155,0,0,0,96.459,15.341,58.773,58.773,0,0,0,5.338-4.579A59.9,59.9,0,0,0,122.1,101.212,61.112,61.112,0,0,0,126.9,76.944,61.112,61.112,0,0,0,122.1,52.676" transform="translate(0 52.697)"/>
      <path id="Trazado_27" data-name="Trazado 27" d="M166.678,147.426a76.047,76.047,0,0,1-28.264-5.132,66.616,66.616,0,0,1-.005-124.11,80.248,80.248,0,0,1,56.448,0A67.412,67.412,0,0,1,217.21,32.449a65.824,65.824,0,0,1,6.293,7.092V27.77a11.355,11.355,0,0,1,11.345-11.345h40.921a51.619,51.619,0,0,1,18.87,3.2,36.605,36.605,0,0,1,21.73,21.931,44.988,44.988,0,0,1,2.694,15.6c0,9.912-2.478,18.131-7.364,24.429a34.889,34.889,0,0,1-16.633,11.43L320.1,125.646a11.448,11.448,0,0,1-9.088,18.412H292.683a11.4,11.4,0,0,1-9.621-5.248L261.649,105.6v27.1a11.364,11.364,0,0,1-11.35,11.355H234.853A11.364,11.364,0,0,1,223.5,132.7V120.936a64.877,64.877,0,0,1-6.293,7.092,67.418,67.418,0,0,1-22.353,14.27,76.219,76.219,0,0,1-28.179,5.127m0-127.648a69.383,69.383,0,0,0-25.776,4.65,60.663,60.663,0,0,0-33.029,79.59,59.481,59.481,0,0,0,13.049,19.206,60.168,60.168,0,0,0,19.98,12.833c15.411,6.127,35.789,6.2,51.482-.005a60.8,60.8,0,0,0,20.141-12.838,58.588,58.588,0,0,0,11.345-15.431l6.354-12.461V132.7a4.635,4.635,0,0,0,4.629,4.634H250.3a4.635,4.635,0,0,0,4.629-4.634V82.78l33.788,52.391a4.689,4.689,0,0,0,3.966,2.166h18.332a4.729,4.729,0,0,0,3.755-7.6l-31.2-40.675,5.062-1.191c7.846-1.84,13.823-5.343,17.759-10.415,3.946-5.087,5.951-11.923,5.951-20.307a38.2,38.2,0,0,0-2.282-13.27,29.841,29.841,0,0,0-17.884-18,44.918,44.918,0,0,0-16.407-2.734H234.848a4.628,4.628,0,0,0-4.624,4.624V65.157L223.87,52.7A58.645,58.645,0,0,0,212.525,37.27a60.718,60.718,0,0,0-20.146-12.838,69.449,69.449,0,0,0-25.7-4.655m0,97.178a38.187,38.187,0,0,1-14.326-2.729,36.74,36.74,0,0,1-11.9-7.675,37.17,37.17,0,0,1-8.113-11.626,37.247,37.247,0,0,1,0-29.365,37.282,37.282,0,0,1,8.113-11.631,36.907,36.907,0,0,1,11.9-7.675,39.186,39.186,0,0,1,28.651,0,37.934,37.934,0,0,1,11.963,7.655,36.618,36.618,0,0,1,8.208,11.651,37.191,37.191,0,0,1,0,29.365,36.588,36.588,0,0,1-8.208,11.646A37.671,37.671,0,0,1,181,114.226a38.205,38.205,0,0,1-14.326,2.729m0-66.707a31.452,31.452,0,0,0-11.812,2.242A29.96,29.96,0,0,0,138.475,68.3a30.564,30.564,0,0,0,0,23.876,29.96,29.96,0,0,0,16.391,15.813,32.44,32.44,0,0,0,23.63,0,31.063,31.063,0,0,0,9.842-6.293,29.764,29.764,0,0,0,6.7-9.52,30.448,30.448,0,0,0,0-23.876,29.8,29.8,0,0,0-6.7-9.52,31.03,31.03,0,0,0-9.847-6.293,31.452,31.452,0,0,0-11.812-2.242m97.545,26.937h-9.294V40.637h9.294c6.937,0,12.431,1.533,16.331,4.554,4.167,3.227,6.273,7.846,6.273,13.722s-2.106,10.5-6.273,13.722c-3.9,3.016-9.395,4.549-16.331,4.549m-2.574-6.72h2.574c5.409,0,9.52-1.061,12.214-3.147,2.468-1.91,3.669-4.66,3.669-8.4s-1.2-6.494-3.669-8.409c-2.694-2.086-6.806-3.147-12.214-3.147h-2.574Z" transform="translate(388.349 52.576)"/>
      <path id="Trazado_28" data-name="Trazado 28" d="M192.625,141.36H176.962a11.26,11.26,0,0,1-11.244-11.244V47.068H151.146A11.257,11.257,0,0,1,139.9,35.824V24.971a11.254,11.254,0,0,1,11.244-11.244h67.3a11.253,11.253,0,0,1,11.239,11.244V35.824a11.256,11.256,0,0,1-11.239,11.244H203.869v83.048a11.257,11.257,0,0,1-11.244,11.244M151.146,20.447a4.531,4.531,0,0,0-4.524,4.524V35.824a4.531,4.531,0,0,0,4.524,4.524h21.292v89.769a4.531,4.531,0,0,0,4.524,4.524h15.663a4.531,4.531,0,0,0,4.524-4.524V40.347h21.3a4.526,4.526,0,0,0,4.519-4.524V24.971a4.526,4.526,0,0,0-4.519-4.524Z" transform="translate(563.317 55.274)"/>
      <path id="Trazado_29" data-name="Trazado 29" d="M221.466,141.36H169.019a11.552,11.552,0,0,1-11.536-11.536V25.263a11.552,11.552,0,0,1,11.536-11.536h52.447A11.552,11.552,0,0,1,233,25.263V35.532a11.552,11.552,0,0,1-11.536,11.536H195.634V60.549h23.745A11.548,11.548,0,0,1,230.91,72.085V82.359A11.543,11.543,0,0,1,219.379,93.89H195.634v14.13h25.831A11.549,11.549,0,0,1,233,119.555v10.269a11.552,11.552,0,0,1-11.536,11.536M169.019,20.447a4.822,4.822,0,0,0-4.815,4.815V129.824a4.822,4.822,0,0,0,4.815,4.815h52.447a4.822,4.822,0,0,0,4.815-4.815V119.555a4.822,4.822,0,0,0-4.815-4.815H188.914V87.169h30.466a4.814,4.814,0,0,0,4.81-4.81V72.085a4.814,4.814,0,0,0-4.81-4.81H188.914V40.347h32.552a4.822,4.822,0,0,0,4.815-4.815V25.263a4.822,4.822,0,0,0-4.815-4.815Z" transform="translate(634.108 55.274)"/>
      <path id="Trazado_30" data-name="Trazado 30" d="M238.837,147.426a72.461,72.461,0,0,1-26.982-4.891,61.67,61.67,0,0,1-21.106-13.828,62.831,62.831,0,0,1-13.727-21.333,74.065,74.065,0,0,1-4.886-27.294,74.725,74.725,0,0,1,4.8-27.113,60.482,60.482,0,0,1,13.753-21.3,62.76,62.76,0,0,1,21.428-13.732A75.622,75.622,0,0,1,239.8,13.057c13.144,0,24.876,2.9,34.864,8.62a56.66,56.66,0,0,1,18.668,17.588,11.706,11.706,0,0,1-5.187,17.392l-14.019,5.806a11.531,11.531,0,0,1-14.3-4.484,22.683,22.683,0,0,0-6.7-7.153A23.69,23.69,0,0,0,239.8,47.041a27.241,27.241,0,0,0-11.425,2.337,24.688,24.688,0,0,0-8.691,6.635,33.259,33.259,0,0,0-5.811,10.706,44.992,44.992,0,0,0-2.141,14.321,45.647,45.647,0,0,0,1.855,13.3,29.041,29.041,0,0,0,5.378,10.209,23.884,23.884,0,0,0,8.731,6.545c5.585,2.493,13.632,3.091,20.619,1.4A20.583,20.583,0,0,0,255,109.606a15.828,15.828,0,0,0,4.7-4.976,17.729,17.729,0,0,0,1.709-3.87h-13.29a11.7,11.7,0,0,1-11.687-11.687V81.347a11.7,11.7,0,0,1,11.687-11.682h45.555a11.7,11.7,0,0,1,11.677,12.219q-.2,4.735-.638,8.957a65.493,65.493,0,0,1-3.383,15.386,61.864,61.864,0,0,1-9.671,17.713,57.11,57.11,0,0,1-14.391,12.943,67.335,67.335,0,0,1-17.98,7.851,77.151,77.151,0,0,1-20.458,2.689M239.8,19.777A69.026,69.026,0,0,0,214.569,24.2a55.939,55.939,0,0,0-19.151,12.25A53.782,53.782,0,0,0,183.2,55.4a68.032,68.032,0,0,0-4.348,24.685,67.5,67.5,0,0,0,4.413,24.826,56.206,56.206,0,0,0,12.25,19.071,55.107,55.107,0,0,0,18.829,12.315,65.754,65.754,0,0,0,24.489,4.413,70.251,70.251,0,0,0,18.673-2.448A60.677,60.677,0,0,0,273.7,131.2a50.433,50.433,0,0,0,12.7-11.425,55.236,55.236,0,0,0,8.605-15.8,58.827,58.827,0,0,0,3.031-13.813q.415-4.041.608-8.565a4.954,4.954,0,0,0-1.387-3.679,4.88,4.88,0,0,0-3.574-1.528H248.126a4.968,4.968,0,0,0-4.961,4.961v7.726a4.969,4.969,0,0,0,4.961,4.966h21.4l-.588,3.865a27.516,27.516,0,0,1-3.5,10.224,22.665,22.665,0,0,1-6.685,7.052,27.148,27.148,0,0,1-8.867,3.845c-8.419,2.026-17.985,1.3-24.927-1.8a30.518,30.518,0,0,1-11.159-8.374A35.666,35.666,0,0,1,207.16,96.3a52.414,52.414,0,0,1-2.151-15.255,51.555,51.555,0,0,1,2.5-16.467,39.778,39.778,0,0,1,7.017-12.868,31.3,31.3,0,0,1,11.048-8.434A33.868,33.868,0,0,1,239.8,40.321a30.6,30.6,0,0,1,16.985,4.871,29.211,29.211,0,0,1,8.741,9.239,4.9,4.9,0,0,0,6.027,1.82l14.024-5.8a4.978,4.978,0,0,0,2.2-7.4,49.954,49.954,0,0,0-16.452-15.537c-8.957-5.127-19.563-7.731-31.521-7.731" transform="translate(693.104 52.576)"/>
      <path id="Trazado_31" data-name="Trazado 31" d="M309.919,141.359H294.176a11.578,11.578,0,0,1-10.943-7.811l-4.534-13.2H238.6l-4.539,13.2a11.562,11.562,0,0,1-10.938,7.811H207.378a11.578,11.578,0,0,1-10.817-15.688L236.336,21.18a11.63,11.63,0,0,1,10.817-7.454h22.991a11.64,11.64,0,0,1,10.817,7.454l39.77,104.486a11.575,11.575,0,0,1-10.812,15.693M233.8,113.628h49.7l6.087,17.734a4.855,4.855,0,0,0,4.589,3.277h15.743a4.847,4.847,0,0,0,4.529-6.575v-.005L274.678,23.573a4.875,4.875,0,0,0-4.534-3.126H247.153a4.881,4.881,0,0,0-4.539,3.126l-39.77,104.486a4.854,4.854,0,0,0,4.534,6.58h15.743a4.848,4.848,0,0,0,4.584-3.277Zm43.7-17.171H239.8l18.849-53.769Zm-28.224-6.72h18.749L258.649,63Z" transform="translate(788.415 55.27)"/>
    </g>
  </g>
</svg>
